<mxfile host="65bd71144e" modified="2020-12-11T10:59:08.430Z" agent="5.0 (Windows NT 10.0; Win64; x64) AppleWebKit/537.36 (KHTML, like Gecko) Code/1.51.1 Chrome/83.0.4103.122 Electron/9.3.3 Safari/537.36" etag="4IJfVbOFPoGxrYfANmy-" version="13.10.0" type="embed">
    <diagram id="yeThM8H1uTVoMIkGAMHY" name="Page-1">
        <mxGraphModel dx="1093" dy="790" grid="1" gridSize="10" guides="1" tooltips="1" connect="1" arrows="1" fold="1" page="1" pageScale="1" pageWidth="850" pageHeight="1100" math="0" shadow="0">
            <root>
                <mxCell id="0"/>
                <mxCell id="1" parent="0"/>
                <mxCell id="42" value="&lt;b&gt;WORKFLOW&lt;/b&gt;" style="text;html=1;strokeColor=#005700;fillColor=#008a00;align=center;verticalAlign=middle;whiteSpace=wrap;rounded=0;dashed=1;fontColor=#ffffff;" parent="1" vertex="1">
                    <mxGeometry x="540" y="332.5" width="90" height="20" as="geometry"/>
                </mxCell>
                <mxCell id="43" value="&lt;b&gt;COLLECTIONS&lt;/b&gt;" style="text;html=1;strokeColor=#005700;fillColor=#008a00;align=center;verticalAlign=middle;whiteSpace=wrap;rounded=0;dashed=1;fontColor=#ffffff;" parent="1" vertex="1">
                    <mxGeometry x="50" y="50" width="100" height="20" as="geometry"/>
                </mxCell>
                <mxCell id="60" value="&lt;b&gt;COMMANDS&lt;/b&gt;" style="text;html=1;strokeColor=#005700;fillColor=#008a00;align=center;verticalAlign=middle;whiteSpace=wrap;rounded=0;dashed=1;fontColor=#ffffff;" parent="1" vertex="1">
                    <mxGeometry x="640" y="20" width="90" height="20" as="geometry"/>
                </mxCell>
                <mxCell id="61" value="F1 : display Profiler" style="text;html=1;strokeColor=none;fillColor=none;align=left;verticalAlign=middle;whiteSpace=wrap;rounded=0;dashed=1;" parent="1" vertex="1">
                    <mxGeometry x="660" y="100" width="110" height="20" as="geometry"/>
                </mxCell>
                <mxCell id="62" value="If DEBUG_MODE = true" style="text;html=1;strokeColor=none;fillColor=none;align=left;verticalAlign=middle;whiteSpace=wrap;rounded=0;dashed=1;" parent="1" vertex="1">
                    <mxGeometry x="640" y="80" width="170" height="20" as="geometry"/>
                </mxCell>
                <mxCell id="63" value="F2 : display debug collision" style="text;html=1;strokeColor=none;fillColor=none;align=left;verticalAlign=middle;whiteSpace=wrap;rounded=0;dashed=1;" parent="1" vertex="1">
                    <mxGeometry x="660" y="120" width="160" height="20" as="geometry"/>
                </mxCell>
                <mxCell id="68" value="" style="edgeStyle=orthogonalEdgeStyle;rounded=0;orthogonalLoop=1;jettySize=auto;html=1;" parent="1" source="64" target="66" edge="1">
                    <mxGeometry relative="1" as="geometry"/>
                </mxCell>
                <mxCell id="64" value="Main" style="rounded=0;whiteSpace=wrap;html=1;" parent="1" vertex="1">
                    <mxGeometry x="520" y="380" width="120" height="30" as="geometry"/>
                </mxCell>
                <mxCell id="65" value="Main" style="rounded=0;whiteSpace=wrap;html=1;" parent="1" vertex="1">
                    <mxGeometry x="20" y="95" width="120" height="30" as="geometry"/>
                </mxCell>
                <mxCell id="72" value="" style="edgeStyle=orthogonalEdgeStyle;rounded=0;orthogonalLoop=1;jettySize=auto;html=1;" edge="1" parent="1" source="66" target="71">
                    <mxGeometry relative="1" as="geometry"/>
                </mxCell>
                <mxCell id="66" value="Game" style="rounded=0;whiteSpace=wrap;html=1;" parent="1" vertex="1">
                    <mxGeometry x="520" y="430" width="120" height="30" as="geometry"/>
                </mxCell>
                <mxCell id="67" value="Game" style="rounded=0;whiteSpace=wrap;html=1;" parent="1" vertex="1">
                    <mxGeometry x="20" y="140" width="120" height="30" as="geometry"/>
                </mxCell>
                <mxCell id="69" value="&lt;b&gt;COLLECTIONS&lt;/b&gt;" style="text;html=1;strokeColor=#005700;fillColor=#008a00;align=center;verticalAlign=middle;whiteSpace=wrap;rounded=0;dashed=1;fontColor=#ffffff;" vertex="1" parent="1">
                    <mxGeometry x="60" y="332.5" width="100" height="20" as="geometry"/>
                </mxCell>
                <mxCell id="70" value="Gift" style="rounded=0;whiteSpace=wrap;html=1;" vertex="1" parent="1">
                    <mxGeometry x="20" y="380" width="120" height="30" as="geometry"/>
                </mxCell>
                <mxCell id="71" value="Create gifts" style="shape=process;whiteSpace=wrap;html=1;backgroundOutline=1;" vertex="1" parent="1">
                    <mxGeometry x="520" y="480" width="120" height="30" as="geometry"/>
                </mxCell>
                <mxCell id="73" value="LevelManager" style="text;html=1;strokeColor=none;fillColor=none;align=left;verticalAlign=middle;whiteSpace=wrap;rounded=0;dashed=1;" vertex="1" parent="1">
                    <mxGeometry x="650" y="485" width="100" height="20" as="geometry"/>
                </mxCell>
            </root>
        </mxGraphModel>
    </diagram>
</mxfile>